<svg width="1024" height="1024" viewBox="0 0 1024 1024" fill="none" xmlns="http://www.w3.org/2000/svg">
  <defs>
    <linearGradient id="bg" x1="168" y1="120" x2="860" y2="920" gradientUnits="userSpaceOnUse">
      <stop stop-color="#0B1631"/>
      <stop offset="0.52" stop-color="#10264F"/>
      <stop offset="1" stop-color="#1A3A73"/>
    </linearGradient>
    <linearGradient id="panel" x1="288" y1="252" x2="760" y2="780" gradientUnits="userSpaceOnUse">
      <stop stop-color="#101D37"/>
      <stop offset="1" stop-color="#0A1326"/>
    </linearGradient>
    <linearGradient id="accent" x1="334" y1="308" x2="726" y2="734" gradientUnits="userSpaceOnUse">
      <stop stop-color="#4DA3FF"/>
      <stop offset="1" stop-color="#2563EB"/>
    </linearGradient>
    <linearGradient id="glow" x1="352" y1="248" x2="808" y2="708" gradientUnits="userSpaceOnUse">
      <stop stop-color="#7DD3FC" stop-opacity="0.92"/>
      <stop offset="1" stop-color="#60A5FA" stop-opacity="0"/>
    </linearGradient>
    <filter id="shadow" x="140" y="140" width="744" height="744" filterUnits="userSpaceOnUse" color-interpolation-filters="sRGB">
      <feFlood flood-opacity="0" result="BackgroundImageFix"/>
      <feColorMatrix in="SourceAlpha" type="matrix" values="0 0 0 0 0 0 0 0 0 0 0 0 0 0 0 0 0 0 127 0" result="hardAlpha"/>
      <feOffset dy="28"/>
      <feGaussianBlur stdDeviation="34"/>
      <feColorMatrix type="matrix" values="0 0 0 0 0.0117647 0 0 0 0 0.0666667 0 0 0 0 0.176471 0 0 0 0.36 0"/>
      <feBlend mode="normal" in2="BackgroundImageFix" result="effect1_dropShadow_1_1"/>
      <feBlend mode="normal" in="SourceGraphic" in2="effect1_dropShadow_1_1" result="shape"/>
    </filter>
  </defs>

  <rect x="88" y="88" width="848" height="848" rx="210" fill="url(#bg)"/>
  <rect x="126" y="126" width="772" height="772" rx="172" stroke="white" stroke-opacity="0.08" stroke-width="4"/>
  <circle cx="772" cy="252" r="166" fill="url(#glow)"/>

  <g filter="url(#shadow)">
    <rect x="224" y="224" width="576" height="576" rx="132" fill="url(#panel)"/>
    <rect x="224" y="224" width="576" height="576" rx="132" stroke="white" stroke-opacity="0.08" stroke-width="3"/>

    <path d="M360 396L446 482L360 568" stroke="url(#accent)" stroke-width="52" stroke-linecap="round" stroke-linejoin="round"/>
    <rect x="500" y="536" width="160" height="48" rx="24" fill="url(#accent)"/>

    <rect x="344" y="300" width="338" height="148" rx="42" fill="white" fill-opacity="0.06" stroke="white" stroke-opacity="0.08" stroke-width="3"/>
    <rect x="390" y="344" width="96" height="20" rx="10" fill="url(#accent)"/>
    <circle cx="612" cy="374" r="12" fill="#A5F3FC"/>

    <rect x="344" y="588" width="338" height="148" rx="42" fill="white" fill-opacity="0.06" stroke="white" stroke-opacity="0.08" stroke-width="3"/>
    <rect x="390" y="632" width="96" height="20" rx="10" fill="url(#accent)"/>
    <circle cx="612" cy="662" r="12" fill="#A5F3FC"/>
  </g>
</svg>
